<?xml version="1.0" encoding="UTF-8"?>
<svg id="Layer_1" xmlns="http://www.w3.org/2000/svg" version="1.1" viewBox="0 0 512 418.28">
  <!-- Generator: Adobe Illustrator 30.2.1, SVG Export Plug-In . SVG Version: 2.1.1 Build 1)  -->
  <defs>
    <style>
      .st0 {
        fill: #4486c6;
      }

      .st1, .st2 {
        fill: #b5e3f5;
      }

      .st2 {
        opacity: .4;
      }

      .st3 {
        fill: #1a4699;
      }

      .st4 {
        fill: #c1dff4;
      }
    </style>
  </defs>
  <polygon class="st3" points="192.17 201.46 192.16 201.46 3.57 303.02 2.51 106.31 191.11 4.74 191.13 4.77 192.17 201.46"/>
  <polygon class="st0" points="192.17 201.47 192.17 201.46 191.13 4.77 380.76 99.91 381.82 296.61 192.17 201.47"/>
  <polygon class="st1" points="381.82 296.61 193.23 398.18 193.21 398.15 3.57 303.02 192.16 201.46 192.17 201.47 381.82 296.61"/>
  <g>
    <path class="st3" d="M93.35,301.54c18.06-88.01,63.08-154.24,69.97-244.61,38.08,84.38,92.21,160.61,163.86,218.89,55.14,47.56,111.74,62.8,178.6,81.79"/>
    <g>
      <path class="st0" d="M428.48,411.71c-59.79-31.59-110.58-57.54-153.45-113.97-56.43-69.96-92.54-153.45-111.73-241.47-24.83,84.63-46.57,167.99-81.55,248.13l66.28,20.73-.1-1.82,4.49-68.26,24.67,3.35,43.03,88.27"/>
      <g>
        <path class="st0" d="M259.49,229.91"/>
        <path class="st4" d="M428.48,408.12c-49.82-26.31-99.92-52.88-138.08-95.37-41.37-46.05-73.38-101.12-96.23-158.47-13.12-32.93-23.27-66.99-30.86-101.61.5,2.27-.5,4.89,0,7.18,13.37,60.98,34.84,120.3,66,174.51,29.59,51.48,66.78,99.46,116.11,133.27,26.37,18.07,54.85,32.76,83.07,47.67-.95-.5,1.03-6.64,0-7.18h0Z"/>
      </g>
    </g>
  </g>
  <polygon class="st2" points="380.25 101.66 191.66 203.23 191.64 203.2 2 108.06 190.59 6.51 190.6 6.51 380.25 101.66"/>
</svg>