<?xml version="1.0" encoding="UTF-8"?>
<svg id="Layer_1" xmlns="http://www.w3.org/2000/svg" version="1.1" viewBox="0 0 479.16 115.28">
  <!-- Generator: Adobe Illustrator 30.2.1, SVG Export Plug-In . SVG Version: 2.1.1 Build 1)  -->
  <defs>
    <style>
      .st0 {
        fill: none;
      }

      .st1 {
        font-size: 49.66px;
      }

      .st1, .st2, .st3 {
        stroke: #060606;
      }

      .st1, .st2, .st3, .st4, .st5, .st6, .st7, .st8, .st9 {
        stroke-miterlimit: 10;
      }

      .st1, .st2, .st3, .st4, .st6 {
        fill: #1d3f1f;
      }

      .st1, .st3 {
        font-family: IowanOldStyle-Black, 'Iowan Old Style';
        font-weight: 800;
        stroke-width: .25px;
      }

      .st10, .st5 {
        fill: #a59064;
      }

      .st2 {
        stroke-width: .49px;
      }

      .st11, .st7, .st9 {
        fill: #fff;
      }

      .st3 {
        font-size: 63.82px;
      }

      .st4 {
        font-family: MyriadPro-Regular, 'Myriad Pro';
        font-size: 27.77px;
        stroke-width: .33px;
      }

      .st4, .st6 {
        stroke: #070707;
      }

      .st5 {
        stroke: #152115;
      }

      .st5, .st6, .st7, .st9 {
        stroke-width: .25px;
      }

      .st12, .st8 {
        fill: #221f1f;
      }

      .st7 {
        stroke: #221f1f;
      }

      .st8 {
        stroke: #fff;
        stroke-width: .98px;
      }

      .st9 {
        stroke: #231f20;
      }
    </style>
  </defs>
  <text class="st3" transform="translate(216.94 53.81) scale(1.44 1)"><tspan x="0" y="0">N</tspan></text>
  <text class="st1" transform="translate(289.99 45.11) scale(1.44 1)"><tspan x="0" y="0">O</tspan></text>
  <text class="st3" transform="translate(375.19 55.22) scale(1.44 1)"><tspan x="0" y="0">O</tspan></text>
  <text class="st3" transform="translate(345.36 53.98) scale(1.44 1)"><tspan x="0" y="0">J</tspan></text>
  <text class="st4" transform="translate(217.77 100.86) scale(1.59 1)"><tspan x="0" y="0">Consultation</tspan></text>
  <g>
    <path class="st2" d="M182.14,89.84c0,6.99-38.51,12.65-86.02,12.65s-86.01-5.67-86.01-12.65,38.51-12.65,86.01-12.65,86.02,5.67,86.02,12.65Z"/>
    <polygon class="st12" points="26.98 91.98 40.88 95.37 40.88 71.05 26.98 67.66 26.98 91.98"/>
    <rect class="st8" x="85.31" y="43.78" width="3.28" height="30.13" transform="translate(-10.41 98.13) rotate(-56.06)"/>
    <rect class="st8" x="48.92" y="57.21" width="30.13" height="3.28" transform="translate(-21.95 45.75) rotate(-33.94)"/>
    <polygon class="st12" points="76.14 57.38 34.36 57.38 26.53 70.52 68.3 70.52 76.14 57.38"/>
    <polyline class="st5" points="86.95 70.88 86.95 96.85 134.61 96.85 134.61 70.88"/>
    <polygon class="st10" points="133.22 70.91 112.19 56.76 90.17 70.97 133.22 70.91"/>
    <rect class="st5" x="40.79" y="71.05" width="40.12" height="24.49"/>
    <polygon class="st12" points="80.91 95.52 86.95 96.85 86.94 71.38 80.91 70.88 80.91 95.52"/>
    <rect class="st11" x="41.65" y="72.06" width="41.77" height="2.97"/>
    <polygon class="st11" points="41.69 74.92 41.74 72.05 33.95 57.67 33.9 60.54 41.69 74.92"/>
    <polygon class="st9" points="26.12 70.09 26.08 67.22 33.88 57.67 33.92 60.54 26.12 70.09"/>
    <polygon class="st6" points="112.3 55.05 85.87 72.48 53.16 64.09 75.22 49.08 112.3 55.05"/>
    <polygon class="st6" points="33.92 57.65 75.7 57.65 83.53 72.06 41.75 72.06 33.92 57.65"/>
    <polygon class="st11" points="109.92 57.21 134.91 74.03 136.74 71.74 111.74 54.92 109.92 57.21"/>
    <polygon class="st11" points="113.77 57.21 85.86 76.02 85.89 72.47 111.94 54.92 113.77 57.21"/>
    <polygon class="st11" points="83.42 75.03 85.86 75.93 85.89 72.47 83.42 72.08 83.42 75.03"/>
    <rect class="st7" x="106.25" y="77.48" width="11.86" height="18.99"/>
    <rect class="st7" x="45.83" y="80.22" width="12.78" height="5.29"/>
    <rect class="st7" x="62.61" y="80.57" width="12.78" height="5.29"/>
  </g>
  <rect class="st0" x="-4" y="-20.34" width="483.16" height="141.39" rx="19.92" ry="19.92"/>
  <rect class="st0" x=".89" y="1.35" width="476" height="111.68" rx="20.61" ry="20.61"/>
</svg>