<?xml version="1.0" encoding="UTF-8"?>
<svg id="Layer_1" xmlns="http://www.w3.org/2000/svg" version="1.1" viewBox="0 0 1172.03 1120.7">
  <!-- Generator: Adobe Illustrator 30.3.0, SVG Export Plug-In . SVG Version: 2.1.3 Build 182)  -->
  <defs>
    <style>
      .st0 {
        fill: #f9f7f7;
      }

      .st1 {
        fill: #020000;
        stroke-width: 58px;
      }

      .st1, .st2 {
        stroke: #000;
        stroke-linecap: round;
        stroke-linejoin: round;
      }

      .st2 {
        fill: #020101;
        stroke-width: 44px;
      }
    </style>
  </defs>
  <path class="st1" d="M136.34,414.57v663.8h893.58V414.57"/>
  <path class="st2" d="M21.46,478.4L583.13,31.61l561.68,446.79H21.46Z"/>
  <path class="st0" d="M859.46,573.5c-65.75-65.75-172.14-65.95-237.64-.45-30.31,30.31-38.54,66.2-38.54,66.2l-287.33-.55c-12.9-.05-38.69,7.63-38.59,38.59l.05,33.12c.95,11.99,9.49,35.93,35.98,36.04l38.7.05c.05,38.7,33.27,49.79,52.6,47.08,33.12-5.47,35.83-41.35,35.83-41.35h11.04c.1,53.05,38.8,60.88,58.12,58.17,33.17-5.47,38.65-38.59,38.65-38.59,5.47-16.56-5.62-27.65,22.03-27.6l33.17.05c2.26,24.34,26.8,54.4,38.8,66.4,65.75,65.75,172.14,66,237.64.5,65.45-65.5,65.24-171.89-.5-237.64ZM782.42,733.6c-22.84,22.84-59.97,22.79-82.91-.15-22.94-22.94-22.99-60.02-.15-82.91,22.84-22.84,59.97-22.73,82.91.2,22.94,22.94,22.99,60.02.15,82.86Z"/>
</svg>