<?xml version="1.0" encoding="UTF-8"?>
<svg id="Layer_1" xmlns="http://www.w3.org/2000/svg" version="1.1" viewBox="0 0 1092.66 1186.84">
  <!-- Generator: Adobe Illustrator 30.3.0, SVG Export Plug-In . SVG Version: 2.1.3 Build 182)  -->
  <defs>
    <style>
      .st0 {
        fill: #fff;
      }
    </style>
  </defs>
  <polygon points="547.92 9.52 17.46 201.1 17.46 311.62 61.67 311.62 61.67 344.77 1034.18 344.77 1034.18 311.62 1078.38 311.62 1078.38 201.1 547.92 9.52"/>
  <polygon points="1034.18 996.79 61.67 996.79 61.67 1085.2 17.46 1085.2 17.46 1173.61 1078.38 1173.61 1078.38 1085.2 1034.18 1085.2 1034.18 996.79"/>
  <polygon points="805.23 933.51 805.23 982.48 992.36 982.48 992.36 933.51 968.97 933.51 968.97 407.07 992.36 407.07 992.36 358.1 805.23 358.1 805.23 407.07 828.62 407.07 828.62 933.51 805.23 933.51"/>
  <polygon points="454.35 933.51 454.35 982.48 641.49 982.48 641.49 933.51 618.1 933.51 618.1 407.07 641.49 407.07 641.49 358.1 454.35 358.1 454.35 407.07 477.75 407.07 477.75 933.51 454.35 933.51"/>
  <polygon points="103.48 933.51 103.48 982.48 290.61 982.48 290.61 933.51 267.22 933.51 267.22 407.07 290.61 407.07 290.61 358.1 103.48 358.1 103.48 407.07 126.87 407.07 126.87 933.51 103.48 933.51"/>
  <path class="st0" d="M579.48,242.63c0-19.6-9.41-26.47-32.94-35.8l-10.17-4.04c-35.37-14.21-55.11-31.24-55.11-63.48s26.28-56.86,71.72-56.86c35.92,0,61.71,16.87,62.23,43.19-1.82,11.03-9.8,15.26-17.28,15.26-10.66,0-21.14-4.36-24.65-25.7l-3.72-21.63,23.59,13.67c-15.31-6.86-24.5-8.19-36.53-8.19-20.11,0-34.7,8.82-34.7,29.46,0,16.32,10.2,23.4,30.5,31l10.48,4.04c42.68,16.65,58.81,34.4,58.81,65.53,0,33.52-29.33,58.97-77.71,58.97-40.48,0-63.44-16.34-63.79-44.08,3.92-10.26,11.2-14.36,18.94-14.36,11.73,0,18.58,5.62,20.74,21.88l3.27,25.67-22.1-15.47c14.99,6.95,25.17,9.85,43.15,9.85,21.92,0,35.27-11.5,35.27-28.91ZM540.2,184.93h19.41v134.19h-19.41v-134.19ZM542.08,184.93V54.22h19.41v130.71h-19.41Z"/>
</svg>