<?xml version="1.0" encoding="UTF-8"?>
<svg id="Layer_1" xmlns="http://www.w3.org/2000/svg" version="1.1" viewBox="0 0 1500 1382.62">
  <!-- Generator: Adobe Illustrator 30.3.0, SVG Export Plug-In . SVG Version: 2.1.3 Build 182)  -->
  <defs>
    <style>
      .st0 {
        fill: #020000;
        stroke-width: 17px;
      }

      .st0, .st1 {
        stroke: #000;
        stroke-linecap: round;
        stroke-linejoin: round;
      }

      .st1 {
        fill: #020101;
        stroke-width: 71px;
      }

      .st2 {
        fill: #fff;
      }
    </style>
  </defs>
  <path class="st0" d="M183.64,524.96v839.14h1129.61v-839.14"/>
  <path class="st1" d="M38.4,605.65L748.44,40.85l710.04,564.8H38.4Z"/>
  <path class="st2" d="M843.07,944.1c0-51.09-28.89-68.98-101.15-93.31l-31.22-10.54c-108.62-37.03-169.25-81.41-169.25-165.43s80.7-148.18,220.25-148.18c110.31,0,189.52,43.98,191.12,112.55-5.58,28.73-30.1,39.77-53.08,39.77-32.75,0-64.91-11.35-75.69-66.98l-11.42-56.37,72.45,35.63c-47.03-17.88-75.23-21.35-112.17-21.35-61.76,0-106.57,22.98-106.57,76.79,0,42.54,31.33,60.98,93.67,80.8l32.18,10.54c131.08,43.38,180.61,89.66,180.61,170.79,0,87.36-90.08,153.67-238.67,153.67-124.32,0-194.83-42.58-195.9-114.89,12.05-26.75,34.39-37.43,58.17-37.43,36.04,0,57.06,14.64,63.7,57.04l10.04,66.9-67.89-40.31c46.03,18.11,77.31,25.67,132.51,25.67,67.33,0,108.33-29.96,108.33-75.35ZM722.43,793.72h59.6v349.71h-59.6v-349.71ZM728.21,793.72v-340.66h59.6v340.66h-59.6Z"/>
</svg>